# xmcd CD database file
#
# Track frame offsets:
#	150
#	13097
#	32212
#	47282
#	65227
#	80962
#	99635
#	122040
#	143077
#	155297
#	168867
#	184557
#
# Disc length: 2668 seconds
#
# Revision: 0
# Processed by: cddbd v1.5.1PL0 Copyright (c) Steve Scherf et al.
# Submitted via: CDex 1.51
#
DISCID=9c0a6a0c
DTITLE=平安隆 wiyh 吉川忠英 - 音遊び
DYEAR=2001
DGENRE=Acoustic
TTITLE0=恋の花
TTITLE1=芭蕉布
TTITLE2=ハイサイおじさん
TTITLE3=てぃんさぐぬ花
TTITLE4=肝がなさ節
TTITLE5=エイサーメドレー（仲頭流〜久高〜スーリー東り）
TTITLE6=童神
TTITLE7=花
TTITLE8=娘ジントーヨー
TTITLE9=安里屋ユンタ
TTITLE10=重苦の春
TTITLE11=ハイパーおばさん
EXTD=YEAR: 2001
EXTT0=
EXTT1=
EXTT2=
EXTT3=
EXTT4=
EXTT5=
EXTT6=
EXTT7=
EXTT8=
EXTT9=
EXTT10=
EXTT11=
PLAYORDER=
